<svg xmlns="http://www.w3.org/2000/svg" style="display:none">
<!-- Clan Plus — catégories de chars des line-ups. Pictogrammes géométriques : droites et angles
     vifs, trait en currentColor (épaisseur 1,8), masses teintées à 20 % de la même couleur. Les attributs sont repris sur chaque symbole
     pour que le fichier s'affiche juste, même hors du CSS du site.
     Généré par outils/icones-categories.cjs — ne pas modifier à la main. -->
<symbol id="cat-lourd-hulldown" viewBox="0 0 24 24" fill="none" stroke="currentColor" stroke-width="1.8" stroke-linecap="square" stroke-linejoin="miter"><title>Lourd hulldown</title><path d="M1 20.5 6.5 14H17.5L23 20.5Z" fill="currentColor" fill-opacity="0.16" stroke="none"/><path d="M1 20.5 6.5 14H17.5L23 20.5Z"/><path d="M7.5 14V10L9.5 8H14.5L16.5 10V14" fill="currentColor" fill-opacity="0.2" stroke="none"/><path d="M7.5 14V10L9.5 8H14.5L16.5 10V14"/><path d="M16.5 11H21.5M21.5 9.5V12.5"/></symbol>
<symbol id="cat-lourd-brawl" viewBox="0 0 24 24" fill="none" stroke="currentColor" stroke-width="1.8" stroke-linecap="square" stroke-linejoin="miter"><title>Lourd de brawl</title><path d="M4.5 3.5H19.5V11.5L12 21 4.5 11.5Z" fill="currentColor" fill-opacity="0.2" stroke="none"/><path d="M4.5 3.5H19.5V11.5L12 21 4.5 11.5Z"/><path d="M12 3.5V21M4.5 9H19.5"/></symbol>
<symbol id="cat-lourd-rapide" viewBox="0 0 24 24" fill="none" stroke="currentColor" stroke-width="1.8" stroke-linecap="square" stroke-linejoin="miter"><title>Lourd rapide</title><path d="M10.5 2.5H14V9.2H10.5Z" fill="currentColor" fill-opacity="0.2" stroke="none"/><path d="M10.5 2.5H14V9.2H10.5Z"/><path d="M10.5 14.8H14V21.5H10.5Z" fill="currentColor" fill-opacity="0.2" stroke="none"/><path d="M10.5 14.8H14V21.5H10.5Z"/><path d="M2 12H20.5M16 7.5 20.5 12 16 16.5"/></symbol>
<symbol id="cat-lourd-soutien" viewBox="0 0 24 24" fill="none" stroke="currentColor" stroke-width="1.8" stroke-linecap="square" stroke-linejoin="miter"><title>Lourd de soutien</title><path d="M2.5 8H14L21.5 12 14 16H2.5Z" fill="currentColor" fill-opacity="0.2" stroke="none"/><path d="M2.5 8H14L21.5 12 14 16H2.5Z"/><path d="M6.5 8V16M9.5 8V16"/></symbol>
<symbol id="cat-moyen-hulldown" viewBox="0 0 24 24" fill="none" stroke="currentColor" stroke-width="1.8" stroke-linecap="square" stroke-linejoin="miter"><title>Moyen hulldown</title><path d="M1 20.5 6.5 14H17.5L23 20.5Z" fill="currentColor" fill-opacity="0.16" stroke="none"/><path d="M1 20.5 6.5 14H17.5L23 20.5Z"/><path d="M7.5 14 8.5 11 11 9.5H14.5L17 11.5V14" fill="currentColor" fill-opacity="0.2" stroke="none"/><path d="M7.5 14 8.5 11 11 9.5H14.5L17 11.5V14"/><path d="M17 11.5H22.5"/></symbol>
<symbol id="cat-moyen-brawl" viewBox="0 0 24 24" fill="none" stroke="currentColor" stroke-width="1.8" stroke-linecap="square" stroke-linejoin="miter"><title>Moyen de brawl</title><path d="M4 4 16 16M13 19 19 13M16 16 20 20"/><path d="M20 4 8 16M5 13 11 19M8 16 4 20"/></symbol>
<symbol id="cat-moyen-rapide" viewBox="0 0 24 24" fill="none" stroke="currentColor" stroke-width="1.8" stroke-linecap="square" stroke-linejoin="miter"><title>Moyen rapide</title><path d="M8.5 11.5H15.5V21H8.5Z" fill="currentColor" fill-opacity="0.2" stroke="none"/><path d="M8.5 11.5H15.5V21H8.5Z"/><path d="M3.5 20.5V5.5H20V15.5M17 12.5 20 15.5 23 12.5"/></symbol>
<symbol id="cat-moyen-barillet" viewBox="0 0 24 24" fill="none" stroke="currentColor" stroke-width="1.8" stroke-linecap="square" stroke-linejoin="miter"><title>Moyen à barillet</title><path d="M12 2.5 20.2 7.25V16.75L12 21.5 3.8 16.75V7.25Z" fill="currentColor" fill-opacity="0.2" stroke="none"/><path d="M12 2.5 20.2 7.25V16.75L12 21.5 3.8 16.75V7.25Z"/><path d="M16.24 14.45h.01" stroke-width="2.6"/><path d="M12 16.9h.01" stroke-width="2.6"/><path d="M7.76 14.45h.01" stroke-width="2.6"/><path d="M7.76 9.55h.01" stroke-width="2.6"/><path d="M12 7.1h.01" stroke-width="2.6"/><path d="M16.24 9.55h.01" stroke-width="2.6"/><path d="M12 12h.01" stroke-width="1.4"/></symbol>
<symbol id="cat-moyen-sniper" viewBox="0 0 24 24" fill="none" stroke="currentColor" stroke-width="1.8" stroke-linecap="square" stroke-linejoin="miter"><title>Moyen sniper</title><path d="M6 6H18V18H6Z" fill="currentColor" fill-opacity="0.12" stroke="none"/><path d="M6 6H18V18H6Z"/><path d="M12 3.4V8.6M12 15.4V20.6M3.4 12H8.6M15.4 12H20.6"/><path d="M12 12h.01"/></symbol>
<symbol id="cat-leger-passif" viewBox="0 0 24 24" fill="none" stroke="currentColor" stroke-width="1.8" stroke-linecap="square" stroke-linejoin="miter"><title>Éclaireur passif</title><path d="M4 12.6V7.6L5.6 6H8.4L10 7.6V12.6" fill="currentColor" fill-opacity="0.2" stroke="none"/><path d="M4 12.6V7.6L5.6 6H8.4L10 7.6V12.6"/><path d="M5.5 12.6H8.5L10.6 14.7V17.9L8.5 20H5.5L3.4 17.9V14.7Z" fill="currentColor" fill-opacity="0.2" stroke="none"/><path d="M5.5 12.6H8.5L10.6 14.7V17.9L8.5 20H5.5L3.4 17.9V14.7Z"/><g transform="translate(10 0)"><path d="M4 12.6V7.6L5.6 6H8.4L10 7.6V12.6" fill="currentColor" fill-opacity="0.2" stroke="none"/><path d="M4 12.6V7.6L5.6 6H8.4L10 7.6V12.6"/><path d="M5.5 12.6H8.5L10.6 14.7V17.9L8.5 20H5.5L3.4 17.9V14.7Z" fill="currentColor" fill-opacity="0.2" stroke="none"/><path d="M5.5 12.6H8.5L10.6 14.7V17.9L8.5 20H5.5L3.4 17.9V14.7Z"/></g><path d="M10 10H14"/></symbol>
<symbol id="cat-leger-actif" viewBox="0 0 24 24" fill="none" stroke="currentColor" stroke-width="1.8" stroke-linecap="square" stroke-linejoin="miter"><title>Éclaireur actif</title><path d="M6.5 12 11 7.8H18L22.5 12 18 16.2H11Z" fill="currentColor" fill-opacity="0.12" stroke="none"/><path d="M6.5 12 11 7.8H18L22.5 12 18 16.2H11Z"/><path d="M14.5 9.9 16.6 12 14.5 14.1 12.4 12Z" fill="currentColor" fill-opacity="0.45" stroke="none"/><path d="M14.5 9.9 16.6 12 14.5 14.1 12.4 12Z"/><path d="M1.2 9h2.6M0.6 12h3.2M1.2 15h2"/></symbol>
<symbol id="cat-leger-appui" viewBox="0 0 24 24" fill="none" stroke="currentColor" stroke-width="1.8" stroke-linecap="square" stroke-linejoin="miter"><title>Léger d'appui</title><path d="M14.5 2.5 5.5 13.5H11.5L9.5 21.5 18.5 10H12.5Z" fill="currentColor" fill-opacity="0.28" stroke="none"/><path d="M14.5 2.5 5.5 13.5H11.5L9.5 21.5 18.5 10H12.5Z"/></symbol>
<symbol id="cat-td-blinde" viewBox="0 0 24 24" fill="none" stroke="currentColor" stroke-width="1.8" stroke-linecap="square" stroke-linejoin="miter"><title>Chasseur blindé</title><path d="M3 5.5H21V19.5H3Z" fill="currentColor" fill-opacity="0.2" stroke="none"/><path d="M3 5.5H21V19.5H3Z"/><path d="M3 10.2H21M3 14.8H21M9 5.5V10.2M15 5.5V10.2M6 10.2V14.8M12 10.2V14.8M18 10.2V14.8M9 14.8V19.5M15 14.8V19.5"/></symbol>
<symbol id="cat-td-sniper" viewBox="0 0 24 24" fill="none" stroke="currentColor" stroke-width="1.8" stroke-linecap="square" stroke-linejoin="miter"><title>Chasseur sniper</title><path d="M2.5 9.5H6L8 10.8H15L17 8.5H21.5V15.5H17L15 13.2H8L6 14.5H2.5Z" fill="currentColor" fill-opacity="0.2" stroke="none"/><path d="M2.5 9.5H6L8 10.8H15L17 8.5H21.5V15.5H17L15 13.2H8L6 14.5H2.5Z"/><path d="M10.5 10.8V8H12.5V10.8M9 13.2V16.5M14 13.2V16.5M7 16.5H16"/></symbol>
<symbol id="cat-td-soutien" viewBox="0 0 24 24" fill="none" stroke="currentColor" stroke-width="1.8" stroke-linecap="square" stroke-linejoin="miter"><title>Chasseur de soutien</title><path d="M12 2L13.76 7.75L19.07 4.93L16.25 10.24L22 12L16.25 13.76L19.07 19.07L13.76 16.25L12 22L10.24 16.25L4.93 19.07L7.75 13.76L2 12L7.75 10.24L4.93 4.93L10.24 7.75Z" fill="currentColor" fill-opacity="0.24" stroke="none"/><path d="M12 2L13.76 7.75L19.07 4.93L16.25 10.24L22 12L16.25 13.76L19.07 19.07L13.76 16.25L12 22L10.24 16.25L4.93 19.07L7.75 13.76L2 12L7.75 10.24L4.93 4.93L10.24 7.75Z"/></symbol>
<symbol id="cat-artillerie" viewBox="0 0 24 24" fill="none" stroke="currentColor" stroke-width="1.8" stroke-linecap="square" stroke-linejoin="miter"><title>Artillerie</title><path d="M2.5 20 6 9.5 11 4.5 16 7.5 18.5 12.5" stroke-dasharray=".4 2.6"/><path d="M15.5 21.5H23"/><path d="M19.2 13.6L20 15.81L22.32 15.4L20.8 17.2L22.32 19L20 18.59L19.2 20.8L18.4 18.59L16.08 19L17.6 17.2L16.08 15.4L18.4 15.81Z" fill="currentColor" fill-opacity="0.3" stroke="none"/><path d="M19.2 13.6L20 15.81L22.32 15.4L20.8 17.2L22.32 19L20 18.59L19.2 20.8L18.4 18.59L16.08 19L17.6 17.2L16.08 15.4L18.4 15.81Z"/></symbol>
<symbol id="cat-libre" viewBox="0 0 24 24" fill="none" stroke="currentColor" stroke-width="1.8" stroke-linecap="square" stroke-linejoin="miter"><title>Libre</title><path d="M3 3H21V21H3Z" stroke-dasharray="1.2 3"/><path d="M12 7V17M7.7 9.5 16.3 14.5M16.3 9.5 7.7 14.5"/></symbol>
</svg>
